# xmcd
#
# Track frame offsets:
#	150
#	12962
#	31862
#	45062
#	64112
#	73937
#	102362
#	116687
#	131687
#	151412
#	167612
#	178262
#	194687
#	208112
#	225887
# Disc length: 3231 seconds
# Revision: 2
# Processed by: cddbd v1.5.1PL2 Copyright (c) Steve Scherf et al.
#
# Submitted via: libkcddb 0.31
#
DISCID=c90c9d0f
DTITLE=Hank Shizzoe - Low Budget
DYEAR=1994
DGENRE=Blues
TTITLE0=Knock Some More
TTITLE1=Oh So Near
TTITLE2=Low Budget
TTITLE3=32-20 Blues
TTITLE4=Nobody Will
TTITLE5=Six Blade Knife
TTITLE6=Peace Of Mind
TTITLE7=8000 Miles To New Orleans
TTITLE8=Stagger Lee
TTITLE9=Sinkin' Down
TTITLE10=Caught Asleep
TTITLE11=Travel On
TTITLE12=Hank Williams Must Be In Heaven Now
TTITLE13=(I Still Know That) You're My Friend
TTITLE14=Mona
EXTD=
EXTT0=
EXTT1=
EXTT2=
EXTT3=
EXTT4=
EXTT5=
EXTT6=
EXTT7=
EXTT8=
EXTT9=
EXTT10=
EXTT11=
EXTT12=
EXTT13=
EXTT14=
PLAYORDER=
